<svg id="Layer_1" data-name="Layer 1" xmlns="http://www.w3.org/2000/svg" viewBox="0 0 78.03 135.17"><title>dot-dash-mark</title><path d="M406.17,433v95.16a38,38,0,0,0,76,0V433h-76Z" transform="translate(-405.17 -432)" style="fill:none;stroke:#fff;stroke-miterlimit:10;stroke-width:2px"/><path d="M467.31,522.77v11a5.24,5.24,0,0,1-5.23,5.24h0a5.23,5.23,0,0,1-5.24-5.24V519.41a5.24,5.24,0,0,0-5.24-5.23h0a5.23,5.23,0,0,0-5.24,5.23v30h-11.5a5.24,5.24,0,0,1-5.24-5.23h0a5.24,5.24,0,0,1,5.24-5.23h11.5" transform="translate(-405.17 -432)" style="fill:none;stroke:#fff;stroke-miterlimit:10;stroke-width:2px"/><path d="M467.3,524V467.17a6.62,6.62,0,0,0-6.62-6.62h-33a6.62,6.62,0,0,0-6.62,6.62v65.25a6.62,6.62,0,0,0,6.62,6.62h18.69" transform="translate(-405.17 -432)" style="fill:none;stroke:#fff;stroke-miterlimit:10;stroke-width:2px"/><line x1="15.88" y1="43.29" x2="62.13" y2="43.29" style="fill:none;stroke:#fff;stroke-miterlimit:10;stroke-width:2px"/><line x1="34.8" y1="35.97" x2="47.21" y2="35.97" style="fill:none;stroke:#fff;stroke-miterlimit:10;stroke-width:2px"/><line x1="15.88" y1="95.94" x2="40.93" y2="95.94" style="fill:none;stroke:#fff;stroke-miterlimit:10;stroke-width:2px"/><line x1="51.03" y1="95.94" x2="62.13" y2="95.94" style="fill:none;stroke:#fff;stroke-miterlimit:10;stroke-width:2px"/><path d="M421.82,450.47v-8.76H425a4.87,4.87,0,0,1,1.73.3,3.87,3.87,0,0,1,1.37.86,3.94,3.94,0,0,1,.9,1.38,5.4,5.4,0,0,1,0,3.71,3.86,3.86,0,0,1-.91,1.37,4,4,0,0,1-1.37.85,4.88,4.88,0,0,1-1.73.3h-3.13Zm3.06-1.58a3.06,3.06,0,0,0,1-.17,2.26,2.26,0,0,0,.84-0.51,2.44,2.44,0,0,0,.57-0.87,3.78,3.78,0,0,0,0-2.48,2.5,2.5,0,0,0-.56-0.87,2.26,2.26,0,0,0-.83-0.52,3,3,0,0,0-1-.17h-1.37v5.6h1.36Z" transform="translate(-405.17 -432)" style="fill:#fff"/><path d="M433.1,444.21a3.29,3.29,0,0,1,1.27.24,3,3,0,0,1,1.68,1.69,3.39,3.39,0,0,1,.24,1.3,3.34,3.34,0,0,1-.24,1.29,3.11,3.11,0,0,1-.67,1,3,3,0,0,1-1,.67,3.46,3.46,0,0,1-2.53,0,3,3,0,0,1-1-.67,3.11,3.11,0,0,1-.67-1,3.36,3.36,0,0,1-.24-1.29,3.41,3.41,0,0,1,.24-1.3,3,3,0,0,1,1.68-1.69,3.29,3.29,0,0,1,1.27-.24m0,5a1.58,1.58,0,0,0,.58-0.11,1.39,1.39,0,0,0,.49-0.33,1.65,1.65,0,0,0,.34-0.54,2.25,2.25,0,0,0,0-1.51,1.65,1.65,0,0,0-.34-0.54,1.39,1.39,0,0,0-.49-0.33,1.57,1.57,0,0,0-1.16,0,1.38,1.38,0,0,0-.49.33,1.66,1.66,0,0,0-.34.54,2.27,2.27,0,0,0,0,1.51,1.66,1.66,0,0,0,.34.54,1.39,1.39,0,0,0,.49.33,1.58,1.58,0,0,0,.58.11" transform="translate(-405.17 -432)" style="fill:#fff"/><path d="M450.11,448.82a1.75,1.75,0,0,1,.14-0.72,1.73,1.73,0,0,1,.39-0.55,1.86,1.86,0,0,1,.57-0.37,3.2,3.2,0,0,1,.71-0.2l1.5-.22a0.56,0.56,0,0,0,.36-0.15,0.42,0.42,0,0,0,.1-0.28,0.74,0.74,0,0,0-.25-0.56,1.36,1.36,0,0,0-1.61.06,1.12,1.12,0,0,0-.33.69l-1.46-.31a2,2,0,0,1,.22-0.72,2.25,2.25,0,0,1,.51-0.64,2.59,2.59,0,0,1,.79-0.46,3,3,0,0,1,1.09-.18,3.46,3.46,0,0,1,1.22.19,2.29,2.29,0,0,1,.82.51,1.86,1.86,0,0,1,.46.74,2.7,2.7,0,0,1,.14.88v3c0,0.17,0,.34,0,0.53s0,0.33,0,.44h-1.51a2.81,2.81,0,0,1,0-.34c0-.14,0-0.27,0-0.39a2,2,0,0,1-1.79.9,2.35,2.35,0,0,1-.87-0.15,2.1,2.1,0,0,1-.66-0.41,1.75,1.75,0,0,1-.41-0.58,1.72,1.72,0,0,1-.14-0.69m2.43,0.61a1.85,1.85,0,0,0,.5-0.07,1.06,1.06,0,0,0,.43-0.24,1.18,1.18,0,0,0,.3-0.43,1.78,1.78,0,0,0,.11-0.67v-0.27l-1.37.21a1.07,1.07,0,0,0-.54.23,0.66,0.66,0,0,0-.22.54,0.71,0.71,0,0,0,.2.49,0.77,0.77,0,0,0,.59.22" transform="translate(-405.17 -432)" style="fill:#fff"/><path d="M457.72,448.47a1,1,0,0,0,.3.64,1.07,1.07,0,0,0,.81.28,0.87,0.87,0,0,0,.61-0.18,0.55,0.55,0,0,0,.2-0.43,0.51,0.51,0,0,0-.15-0.37,1,1,0,0,0-.51-0.23l-0.8-.19a2.27,2.27,0,0,1-1.3-.69,1.7,1.7,0,0,1-.41-1.13,1.77,1.77,0,0,1,.17-0.77,1.94,1.94,0,0,1,.48-0.63,2.38,2.38,0,0,1,.72-0.43,2.48,2.48,0,0,1,.91-0.16,2.92,2.92,0,0,1,1.09.18,2.19,2.19,0,0,1,.72.45,1.9,1.9,0,0,1,.41.58,1.86,1.86,0,0,1,.16.55l-1.37.31a1.54,1.54,0,0,0-.08-0.28,0.75,0.75,0,0,0-.18-0.27,0.92,0.92,0,0,0-.3-0.2,1.14,1.14,0,0,0-.44-0.07,0.89,0.89,0,0,0-.55.17,0.52,0.52,0,0,0-.23.43,0.45,0.45,0,0,0,.15.36,0.84,0.84,0,0,0,.4.19l0.87,0.19a2.39,2.39,0,0,1,1.35.69,1.71,1.71,0,0,1,.45,1.17,2,2,0,0,1-.14.73,1.78,1.78,0,0,1-.44.64,2.19,2.19,0,0,1-.74.46,2.84,2.84,0,0,1-1,.17,3,3,0,0,1-1.16-.2,2.49,2.49,0,0,1-.77-0.48,1.88,1.88,0,0,1-.44-0.61,2,2,0,0,1-.17-0.59Z" transform="translate(-405.17 -432)" style="fill:#fff"/><path d="M463.85,450.47h-1.64v-8.95h1.64v3.37a1.64,1.64,0,0,1,.75-0.51,2.79,2.79,0,0,1,.89-0.16,2.45,2.45,0,0,1,1,.19,2,2,0,0,1,.71.51,2.11,2.11,0,0,1,.41.77,3.22,3.22,0,0,1,.13.94v3.83h-1.64v-3.55a1.38,1.38,0,0,0-.27-0.87,1,1,0,0,0-.86-0.35,1,1,0,0,0-.82.34,1.34,1.34,0,0,0-.32.85v3.57Z" transform="translate(-405.17 -432)" style="fill:#fff"/><path d="M449.11,444.25a4,4,0,0,0-.9-1.38,3.87,3.87,0,0,0-1.37-.86,4.87,4.87,0,0,0-1.73-.3H442v2.68h-2.71v-1.82h-1.48v0.85a1,1,0,0,1-.23.69,0.87,0.87,0,0,1-.71.28h-0.31v1.46h1.1v2.83a1.82,1.82,0,0,0,.52,1.38,2,2,0,0,0,1.41.5,2.82,2.82,0,0,0,.59-0.05,1.82,1.82,0,0,0,.34-0.1v-1.36l-0.21,0H440a0.8,0.8,0,0,1-.54-0.15,0.7,0.7,0,0,1-.18-0.55v-2.54h4.41v-2.55h1.37a3,3,0,0,1,1,.17,2.26,2.26,0,0,1,.83.52,2.5,2.5,0,0,1,.56.87,3.78,3.78,0,0,1,0,2.48,2.44,2.44,0,0,1-.57.87,2.26,2.26,0,0,1-.84.51,3.06,3.06,0,0,1-1,.17h-1.36v-2.72l-1.7,1.11v3.19h3.13a4.88,4.88,0,0,0,1.73-.3,4,4,0,0,0,1.37-.85,3.85,3.85,0,0,0,.91-1.37A5.4,5.4,0,0,0,449.11,444.25Z" transform="translate(-405.17 -432)" style="fill:#fff"/><circle cx="30.29" cy="35.78" r="1.5" style="fill:#fff"/></svg>