<?xml version="1.0" encoding="UTF-8" standalone="no"?>
<svg width="78px" height="123px" viewBox="0 0 78 123" version="1.1" xmlns="http://www.w3.org/2000/svg" xmlns:xlink="http://www.w3.org/1999/xlink">
    <!-- Generator: Sketch 46 (44423) - http://www.bohemiancoding.com/sketch -->
    <title>dot-dash-mark</title>
    <desc>Created with Sketch.</desc>
    <defs></defs>
    <g id="Page-1" stroke="none" stroke-width="1" fill="none" fill-rule="evenodd">
        <g id="dot-dash-mark" transform="translate(1.000000, 1.000000)">
            <path d="M0,85.8698228 C-5.68434189e-14,104.807765 17.0131795,120.16 38,120.16 C58.9868205,120.16 76,104.807765 76,85.8698228 L76,0 L-5.68434189e-14,0 L0,85.8698228 Z" id="Shape" stroke="#FFFFFF" stroke-width="2"></path>
            <path d="M61.14,76.77 L61.14,87.77 C61.1400053,90.6600713 58.8000661,93.0044846 55.91,93.01 L55.91,93.01 C54.5194514,93.0126613 53.1850901,92.4614462 52.201822,91.478178 C51.2185538,90.4949099 50.6673387,89.1605486 50.67,87.77 L50.67,73.41 C50.6644846,70.5199339 48.3200713,68.1799947 45.43,68.18 L45.43,68.18 C44.0411859,68.1773445 42.7083445,68.7271883 41.7253654,69.7082915 C40.7423862,70.6893947 40.1899975,72.0211834 40.19,73.41 L40.19,103.41 L28.69,103.41 C25.7999287,103.410005 23.4555154,101.070066 23.45,98.18 L23.45,98.18 C23.4555154,95.2899339 25.7999287,92.9499947 28.69,92.95 L40.19,92.95" id="Shape" stroke="#FFFFFF" stroke-width="2"></path>
            <path d="M61.13,78 L61.13,21.17 C61.13,17.513875 58.166125,14.55 54.51,14.55 L21.51,14.55 C17.853875,14.55 14.89,17.513875 14.89,21.17 L14.89,86.42 C14.89,90.076125 17.853875,93.04 21.51,93.04 L40.2,93.04" id="Shape" stroke="#FFFFFF" stroke-width="2"></path>
            <path d="M14.88,29.29 L61.13,29.29" id="Shape" stroke="#FFFFFF" stroke-width="2"></path>
            <path d="M33.8,21.97 L46.21,21.97" id="Shape" stroke="#FFFFFF" stroke-width="2"></path>
            <path d="M14.88,81.94 L39.93,81.94" id="Shape" stroke="#FFFFFF" stroke-width="2"></path>
            <path d="M50.03,81.94 L61.13,81.94" id="Shape" stroke="#FFFFFF" stroke-width="2"></path>
            <circle id="Oval" fill="#FFFFFF" fill-rule="nonzero" cx="29.29" cy="21.78" r="1.5"></circle>
        </g>
    </g>
</svg>