<svg id="Layer_1" data-name="Layer 1" xmlns="http://www.w3.org/2000/svg" viewBox="0 0 554.36 110.2"><title>dot-dash-logo</title><path d="M122.82,452.86V347.14H160.7a59,59,0,0,1,20.87,3.58A46.75,46.75,0,0,1,198,361.08a47.83,47.83,0,0,1,10.89,16.63,65.23,65.23,0,0,1,0,44.73A46.64,46.64,0,0,1,198,439a48.17,48.17,0,0,1-16.55,10.29,59,59,0,0,1-20.88,3.58H122.82Zm37-19.09a37.06,37.06,0,0,0,12.23-2,27.19,27.19,0,0,0,10.14-6.19A29.68,29.68,0,0,0,189,415.06a45.54,45.54,0,0,0,0-30,30.29,30.29,0,0,0-6.78-10.52,27.35,27.35,0,0,0-10.06-6.26,35.94,35.94,0,0,0-12.23-2.09H143.4v67.55h16.4Z" transform="translate(-122.82 -344.9)" style="fill:#fff"/><path d="M258.89,377.26a39.8,39.8,0,0,1,15.29,2.91,36.16,36.16,0,0,1,20.28,20.35,41.15,41.15,0,0,1,2.91,15.66,40.58,40.58,0,0,1-2.91,15.58,37.59,37.59,0,0,1-8.05,12.3,36.22,36.22,0,0,1-12.22,8.13,41.59,41.59,0,0,1-30.57,0,36.22,36.22,0,0,1-12.22-8.13,37.59,37.59,0,0,1-8.05-12.3,40.58,40.58,0,0,1-2.91-15.58,41.15,41.15,0,0,1,2.91-15.66,36.16,36.16,0,0,1,20.28-20.35,39.79,39.79,0,0,1,15.29-2.91m0,59.8a19.08,19.08,0,0,0,7-1.34,16.69,16.69,0,0,0,6-4,19.84,19.84,0,0,0,4.11-6.49,27.25,27.25,0,0,0,0-18.19,19.9,19.9,0,0,0-4.11-6.48,16.58,16.58,0,0,0-6-4,18.89,18.89,0,0,0-14,0,16.55,16.55,0,0,0-6,4,19.9,19.9,0,0,0-4.11,6.48,27.25,27.25,0,0,0,0,18.19,19.84,19.84,0,0,0,4.11,6.49,16.65,16.65,0,0,0,6,4,19.07,19.07,0,0,0,7,1.34" transform="translate(-122.82 -344.9)" style="fill:#fff"/><path d="M464.24,432.88a20.29,20.29,0,0,1,6.41-15.36,22.43,22.43,0,0,1,6.93-4.47,38.48,38.48,0,0,1,8.57-2.39l18-2.68q3.14-.45,4.32-1.86a5.06,5.06,0,0,0,1.2-3.36,8.86,8.86,0,0,0-3.06-6.71c-2-1.89-5.14-2.83-9.32-2.83q-6.56,0-10.07,3.57a13.49,13.49,0,0,0-3.95,8.36l-17.6-3.73a24.21,24.21,0,0,1,2.68-8.65,26.83,26.83,0,0,1,6.12-7.76,30.88,30.88,0,0,1,9.54-5.58,36.72,36.72,0,0,1,13.13-2.16A41.86,41.86,0,0,1,512,379.57a27.62,27.62,0,0,1,9.92,6.12,22.6,22.6,0,0,1,5.52,8.87,32.82,32.82,0,0,1,1.72,10.59v36.09q0,3,.3,6.33t0.6,5.29H511.8a39.57,39.57,0,0,1-.52-4.1q-0.22-2.61-.23-4.7a25.58,25.58,0,0,1-8.13,7.61q-5.3,3.28-13.5,3.28a28.35,28.35,0,0,1-10.51-1.86,25.22,25.22,0,0,1-8-4.92,20.9,20.9,0,0,1-5-7,20.63,20.63,0,0,1-1.71-8.28m29.37,7.31a22.34,22.34,0,0,0,6-.82,12.77,12.77,0,0,0,5.14-2.83,14.28,14.28,0,0,0,3.58-5.22,21.11,21.11,0,0,0,1.34-8.12v-3.29l-16.55,2.54a13,13,0,0,0-6.49,2.76q-2.61,2.17-2.61,6.49a8.51,8.51,0,0,0,2.39,5.89q2.39,2.61,7.16,2.61" transform="translate(-122.82 -344.9)" style="fill:#fff"/><path d="M556,428.71a12.16,12.16,0,0,0,3.58,7.75q3.27,3.44,9.84,3.43,4.92,0,7.31-2.16a6.72,6.72,0,0,0,2.39-5.15,6.12,6.12,0,0,0-1.79-4.4q-1.79-1.87-6.12-2.76l-9.69-2.24q-10.73-2.39-15.66-8.28A20.64,20.64,0,0,1,541,401.27a21.46,21.46,0,0,1,2.09-9.32,23.31,23.31,0,0,1,5.74-7.61,28.82,28.82,0,0,1,8.65-5.14,30.06,30.06,0,0,1,11-1.94,35.2,35.2,0,0,1,13.12,2.16,26.45,26.45,0,0,1,8.73,5.44,22.84,22.84,0,0,1,5,6.94,21.86,21.86,0,0,1,1.94,6.64l-16.55,3.73a17.88,17.88,0,0,0-1-3.36,9.3,9.3,0,0,0-2.16-3.2,11.15,11.15,0,0,0-3.65-2.39,13.88,13.88,0,0,0-5.3-.89,10.7,10.7,0,0,0-6.64,2.09,6.31,6.31,0,0,0-2.75,5.22A5.47,5.47,0,0,0,561,404a10.18,10.18,0,0,0,4.85,2.24l10.43,2.24q10.89,2.24,16.33,8.35a20.69,20.69,0,0,1,5.44,14.17,23.79,23.79,0,0,1-1.72,8.79,21.74,21.74,0,0,1-5.3,7.76,26.66,26.66,0,0,1-8.94,5.52,34.47,34.47,0,0,1-12.53,2.09,36.18,36.18,0,0,1-14-2.39,29.89,29.89,0,0,1-9.25-5.82,22.78,22.78,0,0,1-5.3-7.38,23.9,23.9,0,0,1-2-7.08Z" transform="translate(-122.82 -344.9)" style="fill:#fff"/><path d="M630.06,452.86H610.22v-108h19.83V385.6a19.75,19.75,0,0,1,9.1-6.18,33.51,33.51,0,0,1,10.74-1.87A29.52,29.52,0,0,1,662,379.86a24.16,24.16,0,0,1,8.5,6.19,25.27,25.27,0,0,1,5,9.24,38.66,38.66,0,0,1,1.64,11.34v46.23H657.35v-42.8a16.69,16.69,0,0,0-3.21-10.44q-3.21-4.17-10.37-4.17-6.26,0-9.84,4.1a16.23,16.23,0,0,0-3.87,10.21v43.1Z" transform="translate(-122.82 -344.9)" style="fill:#fff"/><path d="M452.16,377.71a47.93,47.93,0,0,0-10.89-16.63,46.78,46.78,0,0,0-16.48-10.36,59,59,0,0,0-20.87-3.58H366v32.36H333.38V357.57h-17.9v10.29a12.61,12.61,0,0,1-2.76,8.28q-2.76,3.35-8.57,3.35h-3.73v17.6H313.7v34.15q0,10.74,6.26,16.71t17,6a34.49,34.49,0,0,0,7.08-.6,21.84,21.84,0,0,0,4.1-1.19v-16.4a9.75,9.75,0,0,1-2.53.45c-1.2.1-2.38,0.15-3.58,0.15q-4.33,0-6.49-1.86t-2.16-6.64V397.09h52.91v-0.15h0.32V366.22h16.55a35.86,35.86,0,0,1,12.22,2.09,27.35,27.35,0,0,1,10.07,6.26,30.34,30.34,0,0,1,6.78,10.52,45.54,45.54,0,0,1,0,30,29.63,29.63,0,0,1-6.86,10.51,27.17,27.17,0,0,1-10.14,6.19,37,37,0,0,1-12.22,2H386.62V401L366,414.38v38.49h37.72a58.94,58.94,0,0,0,20.88-3.58A48.1,48.1,0,0,0,441.19,439a46.55,46.55,0,0,0,11-16.56A65.3,65.3,0,0,0,452.16,377.71Z" transform="translate(-122.82 -344.9)" style="fill:#fff"/></svg>